<svg xmlns="http://www.w3.org/2000/svg" version="1.1" xmlns:xlink="http://www.w3.org/1999/xlink" xmlns:svgjs="http://svgjs.com/svgjs" width="280" height="280"><svg width="280" height="280" viewBox="0 0 280 280" xmlns="http://www.w3.org/2000/svg" xmlns:xlink="http://www.w3.org/1999/xlink">
    <linearGradient id="SvgjsLinearGradient1003" x1="171.649624" y1="228.905843" x2="171.649624" y2="-0.126778" gradientUnits="userSpaceOnUse">
        <stop offset="0" stop-color="#3730a2" stop-opacity="1"></stop>
        <stop offset="1" stop-color="#808df8" stop-opacity="1"></stop>
    </linearGradient>
    <path id="SvgjsPath1002" fill="url(#linearGradient1)" fill-rule="evenodd" stroke="none" d="M 81.169189 59.739136 L 175.795975 59.739136 C 200.514801 59.775742 220.533966 79.824615 220.533936 104.543472 L 220.533936 229 C 242.529282 229 260.360016 211.16925 260.360016 189.17392 L 260.360016 61.172867 C 260.360016 41.193451 245.425247 23.855835 224.994476 22.14328 C 222.017914 21.90152 219.039734 21.680267 216.06015 21.479523 C 209.210052 8.281342 195.57782 -0.001404 180.707855 0 L 160.794815 0 C 145.92485 -0.001404 132.292618 8.281342 125.44252 21.479523 C 122.455574 21.67865 119.468613 21.904358 116.508194 22.14328 C 96.568604 23.829285 81.859505 40.383652 81.169189 59.739136 Z M 160.794815 19.913055 C 149.797134 19.913055 140.881775 28.82843 140.881775 39.82608 L 200.620895 39.82608 C 200.620895 28.82843 191.705536 19.913055 180.707855 19.913055 L 160.794815 19.913055 Z"></path>
    <linearGradient id="SvgjsLinearGradient1001" x1="113.131545" y1="279.916145" x2="113.131545" y2="75.942648" gradientUnits="userSpaceOnUse">
        <stop offset="0" stop-color="#3730a2" stop-opacity="1"></stop>
        <stop offset="1" stop-color="#808df8" stop-opacity="1"></stop>
    </linearGradient>
    <path id="SvgjsPath1000" fill="url(#linearGradient2)" fill-rule="evenodd" stroke="none" d="M 20.450001 101.548615 C 20.450001 87.462845 31.870888 76.055557 45.943054 76.055557 L 178.506943 76.055557 C 192.592712 76.055557 204 87.47644 204 101.548615 L 204 254.506943 C 204 268.579102 192.579102 280 178.506943 280 L 45.943054 280 C 31.86363 280 20.450001 268.586365 20.450001 254.506943 L 20.450001 101.548615 Z M 150.784103 164.009995 C 154.305832 159.609711 153.593613 153.187637 149.193329 149.665894 C 144.79303 146.14418 138.370972 146.856384 134.849228 151.256668 L 101.184807 193.350815 L 88.839363 181.018967 C 84.821533 177.275101 78.56044 177.385574 74.67717 181.268845 C 70.7939 185.1521 70.683434 191.413208 74.427292 195.431046 L 94.821747 215.8255 C 96.873085 217.876236 99.700714 218.95636 102.596886 218.795456 C 105.493057 218.634567 108.183647 217.247879 109.995216 214.982513 L 150.784103 163.996399 Z"></path>
</svg><style>@media (prefers-color-scheme: light) { :root { filter: none; } }
</style></svg>